<svg xmlns="http://www.w3.org/2000/svg" xmlns:xlink="http://www.w3.org/1999/xlink" width="1920" zoomAndPan="magnify" viewBox="0 0 1440 809.999993" height="1080" preserveAspectRatio="xMidYMid meet" version="1.0"><defs><filter x="0%" y="0%" width="100%" height="100%" id="2fa0fb6436"><feColorMatrix values="0 0 0 0 1 0 0 0 0 1 0 0 0 0 1 0 0 0 1 0" color-interpolation-filters="sRGB"/></filter><mask id="6bea9a2741"><g filter="url(#2fa0fb6436)"><rect x="-144" width="1728" fill="#000000" y="-80.999999" height="971.999992" fill-opacity="0.1176"/></g></mask><clipPath id="3938d74140"><path d="M 0 0 L 1440 0 L 1440 810 L 0 810 Z M 0 0 " clip-rule="nonzero"/></clipPath><clipPath id="87e9702293"><path d="M 720.019531 -354.730469 C 300.421875 -354.730469 -39.730469 -14.578125 -39.730469 405.019531 C -39.730469 824.617188 300.421875 1164.769531 720.019531 1164.769531 C 1139.617188 1164.769531 1479.769531 824.617188 1479.769531 405.019531 C 1479.769531 -14.578125 1139.617188 -354.730469 720.019531 -354.730469 " clip-rule="nonzero"/></clipPath><clipPath id="386ea6cfbb"><rect x="0" width="1440" y="0" height="810"/></clipPath><clipPath id="9f769322cf"><path d="M 0.0390625 0.0234375 L 1439.652344 0.0234375 L 1439.652344 810 L 0.0390625 810 Z M 0.0390625 0.0234375 " clip-rule="nonzero"/></clipPath><linearGradient x1="-0.00000000280721" gradientTransform="matrix(1439.612778, 0, 0, 810.010733, 0.0382983, 0.02272)" y1="-0.00000000280721" x2="0.999979" gradientUnits="userSpaceOnUse" y2="0.999979" id="19ff236f09"><stop stop-opacity="1" stop-color="rgb(99.598694%, 84.698486%, 78.399658%)" offset="0"/><stop stop-opacity="1" stop-color="rgb(99.481201%, 84.732056%, 78.443909%)" offset="0.0078125"/><stop stop-opacity="1" stop-color="rgb(99.24469%, 84.80072%, 78.53241%)" offset="0.015625"/><stop stop-opacity="1" stop-color="rgb(99.008179%, 84.867859%, 78.620911%)" offset="0.0234375"/><stop stop-opacity="1" stop-color="rgb(98.773193%, 84.934998%, 78.710938%)" offset="0.03125"/><stop stop-opacity="1" stop-color="rgb(98.536682%, 85.002136%, 78.799438%)" offset="0.0390625"/><stop stop-opacity="1" stop-color="rgb(98.301697%, 85.069275%, 78.889465%)" offset="0.046875"/><stop stop-opacity="1" stop-color="rgb(98.065186%, 85.136414%, 78.977966%)" offset="0.0546875"/><stop stop-opacity="1" stop-color="rgb(97.828674%, 85.203552%, 79.066467%)" offset="0.0625"/><stop stop-opacity="1" stop-color="rgb(97.593689%, 85.270691%, 79.156494%)" offset="0.0703125"/><stop stop-opacity="1" stop-color="rgb(97.357178%, 85.33783%, 79.244995%)" offset="0.078125"/><stop stop-opacity="1" stop-color="rgb(97.122192%, 85.404968%, 79.333496%)" offset="0.0859375"/><stop stop-opacity="1" stop-color="rgb(96.885681%, 85.472107%, 79.423523%)" offset="0.09375"/><stop stop-opacity="1" stop-color="rgb(96.64917%, 85.539246%, 79.512024%)" offset="0.101562"/><stop stop-opacity="1" stop-color="rgb(96.414185%, 85.606384%, 79.600525%)" offset="0.109375"/><stop stop-opacity="1" stop-color="rgb(96.177673%, 85.673523%, 79.690552%)" offset="0.117188"/><stop stop-opacity="1" stop-color="rgb(95.941162%, 85.740662%, 79.779053%)" offset="0.125"/><stop stop-opacity="1" stop-color="rgb(95.706177%, 85.8078%, 79.86908%)" offset="0.132812"/><stop stop-opacity="1" stop-color="rgb(95.469666%, 85.874939%, 79.957581%)" offset="0.140625"/><stop stop-opacity="1" stop-color="rgb(95.23468%, 85.942078%, 80.046082%)" offset="0.148438"/><stop stop-opacity="1" stop-color="rgb(94.998169%, 86.009216%, 80.136108%)" offset="0.15625"/><stop stop-opacity="1" stop-color="rgb(94.761658%, 86.076355%, 80.224609%)" offset="0.164063"/><stop stop-opacity="1" stop-color="rgb(94.526672%, 86.143494%, 80.31311%)" offset="0.171875"/><stop stop-opacity="1" stop-color="rgb(94.290161%, 86.210632%, 80.403137%)" offset="0.179688"/><stop stop-opacity="1" stop-color="rgb(94.05365%, 86.277771%, 80.491638%)" offset="0.1875"/><stop stop-opacity="1" stop-color="rgb(93.818665%, 86.34491%, 80.581665%)" offset="0.195313"/><stop stop-opacity="1" stop-color="rgb(93.582153%, 86.412048%, 80.670166%)" offset="0.203125"/><stop stop-opacity="1" stop-color="rgb(93.347168%, 86.479187%, 80.758667%)" offset="0.210938"/><stop stop-opacity="1" stop-color="rgb(93.110657%, 86.546326%, 80.848694%)" offset="0.21875"/><stop stop-opacity="1" stop-color="rgb(92.874146%, 86.613464%, 80.937195%)" offset="0.226562"/><stop stop-opacity="1" stop-color="rgb(92.63916%, 86.680603%, 81.025696%)" offset="0.234375"/><stop stop-opacity="1" stop-color="rgb(92.402649%, 86.747742%, 81.115723%)" offset="0.242188"/><stop stop-opacity="1" stop-color="rgb(92.166138%, 86.81488%, 81.204224%)" offset="0.25"/><stop stop-opacity="1" stop-color="rgb(91.931152%, 86.882019%, 81.292725%)" offset="0.257812"/><stop stop-opacity="1" stop-color="rgb(91.694641%, 86.950684%, 81.382751%)" offset="0.265625"/><stop stop-opacity="1" stop-color="rgb(91.459656%, 87.017822%, 81.471252%)" offset="0.273438"/><stop stop-opacity="1" stop-color="rgb(91.223145%, 87.084961%, 81.561279%)" offset="0.28125"/><stop stop-opacity="1" stop-color="rgb(90.986633%, 87.1521%, 81.64978%)" offset="0.289062"/><stop stop-opacity="1" stop-color="rgb(90.751648%, 87.219238%, 81.738281%)" offset="0.296875"/><stop stop-opacity="1" stop-color="rgb(90.515137%, 87.286377%, 81.828308%)" offset="0.304687"/><stop stop-opacity="1" stop-color="rgb(90.280151%, 87.353516%, 81.916809%)" offset="0.3125"/><stop stop-opacity="1" stop-color="rgb(90.04364%, 87.420654%, 82.00531%)" offset="0.320312"/><stop stop-opacity="1" stop-color="rgb(89.807129%, 87.487793%, 82.095337%)" offset="0.328125"/><stop stop-opacity="1" stop-color="rgb(89.572144%, 87.554932%, 82.183838%)" offset="0.335938"/><stop stop-opacity="1" stop-color="rgb(89.335632%, 87.62207%, 82.272339%)" offset="0.34375"/><stop stop-opacity="1" stop-color="rgb(89.099121%, 87.689209%, 82.362366%)" offset="0.351563"/><stop stop-opacity="1" stop-color="rgb(88.864136%, 87.756348%, 82.450867%)" offset="0.359375"/><stop stop-opacity="1" stop-color="rgb(88.627625%, 87.823486%, 82.540894%)" offset="0.367188"/><stop stop-opacity="1" stop-color="rgb(88.392639%, 87.890625%, 82.629395%)" offset="0.375"/><stop stop-opacity="1" stop-color="rgb(88.156128%, 87.957764%, 82.717896%)" offset="0.382813"/><stop stop-opacity="1" stop-color="rgb(87.919617%, 88.024902%, 82.807922%)" offset="0.390625"/><stop stop-opacity="1" stop-color="rgb(87.684631%, 88.092041%, 82.896423%)" offset="0.398438"/><stop stop-opacity="1" stop-color="rgb(87.44812%, 88.15918%, 82.984924%)" offset="0.40625"/><stop stop-opacity="1" stop-color="rgb(87.211609%, 88.226318%, 83.074951%)" offset="0.414062"/><stop stop-opacity="1" stop-color="rgb(86.976624%, 88.293457%, 83.163452%)" offset="0.421875"/><stop stop-opacity="1" stop-color="rgb(86.740112%, 88.360596%, 83.253479%)" offset="0.429688"/><stop stop-opacity="1" stop-color="rgb(86.505127%, 88.427734%, 83.34198%)" offset="0.4375"/><stop stop-opacity="1" stop-color="rgb(86.268616%, 88.494873%, 83.430481%)" offset="0.445312"/><stop stop-opacity="1" stop-color="rgb(86.032104%, 88.562012%, 83.520508%)" offset="0.453125"/><stop stop-opacity="1" stop-color="rgb(85.797119%, 88.62915%, 83.609009%)" offset="0.460938"/><stop stop-opacity="1" stop-color="rgb(85.560608%, 88.696289%, 83.69751%)" offset="0.46875"/><stop stop-opacity="1" stop-color="rgb(85.324097%, 88.763428%, 83.787537%)" offset="0.476562"/><stop stop-opacity="1" stop-color="rgb(85.089111%, 88.830566%, 83.876038%)" offset="0.484375"/><stop stop-opacity="1" stop-color="rgb(84.8526%, 88.897705%, 83.964539%)" offset="0.492187"/><stop stop-opacity="1" stop-color="rgb(84.617615%, 88.964844%, 84.054565%)" offset="0.49999"/><stop stop-opacity="1" stop-color="rgb(84.500122%, 88.998413%, 84.098816%)" offset="0.5"/><stop stop-opacity="1" stop-color="rgb(84.381104%, 89.031982%, 84.143066%)" offset="0.50001"/><stop stop-opacity="1" stop-color="rgb(84.263611%, 89.067078%, 84.188843%)" offset="0.507812"/><stop stop-opacity="1" stop-color="rgb(84.144592%, 89.100647%, 84.233093%)" offset="0.515625"/><stop stop-opacity="1" stop-color="rgb(83.909607%, 89.167786%, 84.321594%)" offset="0.523438"/><stop stop-opacity="1" stop-color="rgb(83.673096%, 89.234924%, 84.410095%)" offset="0.53125"/><stop stop-opacity="1" stop-color="rgb(83.43811%, 89.302063%, 84.500122%)" offset="0.539062"/><stop stop-opacity="1" stop-color="rgb(83.201599%, 89.369202%, 84.588623%)" offset="0.546875"/><stop stop-opacity="1" stop-color="rgb(82.965088%, 89.43634%, 84.677124%)" offset="0.554687"/><stop stop-opacity="1" stop-color="rgb(82.730103%, 89.503479%, 84.767151%)" offset="0.5625"/><stop stop-opacity="1" stop-color="rgb(82.493591%, 89.570618%, 84.855652%)" offset="0.570312"/><stop stop-opacity="1" stop-color="rgb(82.25708%, 89.637756%, 84.944153%)" offset="0.578125"/><stop stop-opacity="1" stop-color="rgb(82.022095%, 89.704895%, 85.03418%)" offset="0.585938"/><stop stop-opacity="1" stop-color="rgb(81.785583%, 89.772034%, 85.122681%)" offset="0.59375"/><stop stop-opacity="1" stop-color="rgb(81.550598%, 89.839172%, 85.212708%)" offset="0.601562"/><stop stop-opacity="1" stop-color="rgb(81.314087%, 89.906311%, 85.301208%)" offset="0.609375"/><stop stop-opacity="1" stop-color="rgb(81.077576%, 89.97345%, 85.389709%)" offset="0.617187"/><stop stop-opacity="1" stop-color="rgb(80.84259%, 90.040588%, 85.479736%)" offset="0.625"/><stop stop-opacity="1" stop-color="rgb(80.606079%, 90.107727%, 85.568237%)" offset="0.632812"/><stop stop-opacity="1" stop-color="rgb(80.369568%, 90.174866%, 85.656738%)" offset="0.640625"/><stop stop-opacity="1" stop-color="rgb(80.134583%, 90.242004%, 85.746765%)" offset="0.648438"/><stop stop-opacity="1" stop-color="rgb(79.898071%, 90.309143%, 85.835266%)" offset="0.65625"/><stop stop-opacity="1" stop-color="rgb(79.663086%, 90.376282%, 85.925293%)" offset="0.664062"/><stop stop-opacity="1" stop-color="rgb(79.426575%, 90.44342%, 86.013794%)" offset="0.671875"/><stop stop-opacity="1" stop-color="rgb(79.190063%, 90.510559%, 86.102295%)" offset="0.679688"/><stop stop-opacity="1" stop-color="rgb(78.955078%, 90.577698%, 86.192322%)" offset="0.6875"/><stop stop-opacity="1" stop-color="rgb(78.718567%, 90.644836%, 86.280823%)" offset="0.695312"/><stop stop-opacity="1" stop-color="rgb(78.482056%, 90.711975%, 86.369324%)" offset="0.703125"/><stop stop-opacity="1" stop-color="rgb(78.24707%, 90.779114%, 86.459351%)" offset="0.710938"/><stop stop-opacity="1" stop-color="rgb(78.010559%, 90.846252%, 86.547852%)" offset="0.71875"/><stop stop-opacity="1" stop-color="rgb(77.775574%, 90.913391%, 86.636353%)" offset="0.726562"/><stop stop-opacity="1" stop-color="rgb(77.539062%, 90.98053%, 86.726379%)" offset="0.734375"/><stop stop-opacity="1" stop-color="rgb(77.302551%, 91.047668%, 86.81488%)" offset="0.742188"/><stop stop-opacity="1" stop-color="rgb(77.067566%, 91.114807%, 86.904907%)" offset="0.75"/><stop stop-opacity="1" stop-color="rgb(76.831055%, 91.181946%, 86.993408%)" offset="0.757813"/><stop stop-opacity="1" stop-color="rgb(76.596069%, 91.25061%, 87.081909%)" offset="0.765625"/><stop stop-opacity="1" stop-color="rgb(76.359558%, 91.317749%, 87.171936%)" offset="0.773438"/><stop stop-opacity="1" stop-color="rgb(76.123047%, 91.384888%, 87.260437%)" offset="0.78125"/><stop stop-opacity="1" stop-color="rgb(75.888062%, 91.452026%, 87.348938%)" offset="0.789062"/><stop stop-opacity="1" stop-color="rgb(75.65155%, 91.519165%, 87.438965%)" offset="0.796875"/><stop stop-opacity="1" stop-color="rgb(75.415039%, 91.586304%, 87.527466%)" offset="0.804688"/><stop stop-opacity="1" stop-color="rgb(75.180054%, 91.653442%, 87.617493%)" offset="0.8125"/><stop stop-opacity="1" stop-color="rgb(74.943542%, 91.720581%, 87.705994%)" offset="0.820313"/><stop stop-opacity="1" stop-color="rgb(74.708557%, 91.78772%, 87.794495%)" offset="0.828125"/><stop stop-opacity="1" stop-color="rgb(74.472046%, 91.854858%, 87.884521%)" offset="0.835938"/><stop stop-opacity="1" stop-color="rgb(74.235535%, 91.921997%, 87.973022%)" offset="0.84375"/><stop stop-opacity="1" stop-color="rgb(74.000549%, 91.989136%, 88.061523%)" offset="0.851562"/><stop stop-opacity="1" stop-color="rgb(73.764038%, 92.056274%, 88.15155%)" offset="0.859375"/><stop stop-opacity="1" stop-color="rgb(73.527527%, 92.123413%, 88.240051%)" offset="0.867188"/><stop stop-opacity="1" stop-color="rgb(73.292542%, 92.190552%, 88.328552%)" offset="0.875"/><stop stop-opacity="1" stop-color="rgb(73.05603%, 92.25769%, 88.418579%)" offset="0.882812"/><stop stop-opacity="1" stop-color="rgb(72.821045%, 92.324829%, 88.50708%)" offset="0.890625"/><stop stop-opacity="1" stop-color="rgb(72.584534%, 92.391968%, 88.597107%)" offset="0.898438"/><stop stop-opacity="1" stop-color="rgb(72.348022%, 92.459106%, 88.685608%)" offset="0.90625"/><stop stop-opacity="1" stop-color="rgb(72.113037%, 92.526245%, 88.774109%)" offset="0.914063"/><stop stop-opacity="1" stop-color="rgb(71.876526%, 92.593384%, 88.864136%)" offset="0.921875"/><stop stop-opacity="1" stop-color="rgb(71.640015%, 92.660522%, 88.952637%)" offset="0.929687"/><stop stop-opacity="1" stop-color="rgb(71.405029%, 92.727661%, 89.041138%)" offset="0.9375"/><stop stop-opacity="1" stop-color="rgb(71.168518%, 92.7948%, 89.131165%)" offset="0.945312"/><stop stop-opacity="1" stop-color="rgb(70.933533%, 92.861938%, 89.219666%)" offset="0.953125"/><stop stop-opacity="1" stop-color="rgb(70.697021%, 92.929077%, 89.308167%)" offset="0.960938"/><stop stop-opacity="1" stop-color="rgb(70.46051%, 92.996216%, 89.398193%)" offset="0.96875"/><stop stop-opacity="1" stop-color="rgb(70.225525%, 93.063354%, 89.486694%)" offset="0.976562"/><stop stop-opacity="1" stop-color="rgb(69.989014%, 93.130493%, 89.576721%)" offset="0.984375"/><stop stop-opacity="1" stop-color="rgb(69.754028%, 93.197632%, 89.665222%)" offset="0.992188"/><stop stop-opacity="1" stop-color="rgb(69.517517%, 93.264771%, 89.753723%)" offset="1"/></linearGradient><mask id="193af80c29"><g filter="url(#2fa0fb6436)"><rect x="-144" width="1728" fill="#000000" y="-80.999999" height="971.999992" fill-opacity="0.1176"/></g></mask><clipPath id="2f8fc6bdd0"><path d="M 20.265625 0 L 1303.320312 0 L 1303.320312 810 L 20.265625 810 Z M 20.265625 0 " clip-rule="nonzero"/></clipPath><clipPath id="35f2180477"><path d="M 661.792969 -236.734375 C 307.488281 -236.734375 20.265625 50.488281 20.265625 404.792969 C 20.265625 759.097656 307.488281 1046.320312 661.792969 1046.320312 C 1016.097656 1046.320312 1303.320312 759.097656 1303.320312 404.792969 C 1303.320312 50.488281 1016.097656 -236.734375 661.792969 -236.734375 " clip-rule="nonzero"/></clipPath><clipPath id="e9f9445f0d"><rect x="0" width="1324" y="0" height="810"/></clipPath><mask id="e02e2969cf"><g filter="url(#2fa0fb6436)"><rect x="-144" width="1728" fill="#000000" y="-80.999999" height="971.999992" fill-opacity="0.298"/></g></mask><clipPath id="41b13bafd2"><path d="M 0.761719 0 L 1037.578125 0 L 1037.578125 810 L 0.761719 810 Z M 0.761719 0 " clip-rule="nonzero"/></clipPath><clipPath id="592dec54c6"><rect x="0" width="1039" y="0" height="810"/></clipPath><mask id="a13c042b42"><g filter="url(#2fa0fb6436)"><rect x="-144" width="1728" fill="#000000" y="-80.999999" height="971.999992" fill-opacity="0.6078"/></g></mask><clipPath id="ff71084feb"><path d="M 1.265625 0.265625 L 777.027344 0.265625 L 777.027344 776.027344 L 1.265625 776.027344 Z M 1.265625 0.265625 " clip-rule="nonzero"/></clipPath><clipPath id="34a90c8f31"><rect x="0" width="778" y="0" height="778"/></clipPath><clipPath id="ff9c097b77"><path d="M 474.429688 159.429688 L 965.992188 159.429688 L 965.992188 650.992188 L 474.429688 650.992188 Z M 474.429688 159.429688 " clip-rule="nonzero"/></clipPath><clipPath id="56a7eae5fe"><path d="M 965.992188 405.210938 C 965.992188 409.234375 965.890625 413.253906 965.695312 417.269531 C 965.496094 421.289062 965.203125 425.296875 964.808594 429.300781 C 964.414062 433.304688 963.921875 437.296875 963.332031 441.273438 C 962.742188 445.253906 962.054688 449.214844 961.269531 453.160156 C 960.484375 457.105469 959.601562 461.027344 958.625 464.929688 C 957.648438 468.832031 956.574219 472.707031 955.40625 476.558594 C 954.238281 480.40625 952.980469 484.222656 951.625 488.011719 C 950.269531 491.796875 948.820312 495.550781 947.28125 499.265625 C 945.742188 502.984375 944.113281 506.660156 942.394531 510.296875 C 940.671875 513.929688 938.867188 517.523438 936.96875 521.070312 C 935.074219 524.617188 933.089844 528.117188 931.023438 531.566406 C 928.957031 535.015625 926.804688 538.414062 924.570312 541.757812 C 922.335938 545.101562 920.019531 548.390625 917.621094 551.621094 C 915.226562 554.851562 912.753906 558.023438 910.203125 561.132812 C 907.648438 564.242188 905.023438 567.285156 902.320312 570.265625 C 899.621094 573.246094 896.847656 576.160156 894.003906 579.003906 C 891.160156 581.847656 888.246094 584.621094 885.265625 587.320312 C 882.285156 590.023438 879.242188 592.648438 876.132812 595.203125 C 873.023438 597.753906 869.851562 600.226562 866.621094 602.625 C 863.390625 605.019531 860.101562 607.335938 856.757812 609.570312 C 853.414062 611.804688 850.015625 613.957031 846.566406 616.023438 C 843.117188 618.089844 839.617188 620.074219 836.070312 621.96875 C 832.523438 623.867188 828.929688 625.671875 825.296875 627.394531 C 821.660156 629.113281 817.984375 630.742188 814.265625 632.28125 C 810.550781 633.820312 806.796875 635.269531 803.011719 636.625 C 799.222656 637.980469 795.40625 639.238281 791.558594 640.40625 C 787.707031 641.574219 783.832031 642.648438 779.929688 643.625 C 776.027344 644.601562 772.105469 645.484375 768.160156 646.269531 C 764.214844 647.054688 760.253906 647.742188 756.273438 648.332031 C 752.296875 648.921875 748.304688 649.414062 744.300781 649.808594 C 740.296875 650.203125 736.289062 650.496094 732.269531 650.695312 C 728.253906 650.890625 724.234375 650.992188 720.210938 650.992188 C 716.1875 650.992188 712.167969 650.890625 708.152344 650.695312 C 704.132812 650.496094 700.121094 650.203125 696.121094 649.808594 C 692.117188 649.414062 688.125 648.921875 684.148438 648.332031 C 680.167969 647.742188 676.207031 647.054688 672.261719 646.269531 C 668.316406 645.484375 664.390625 644.601562 660.492188 643.625 C 656.589844 642.648438 652.714844 641.574219 648.863281 640.40625 C 645.015625 639.238281 641.195312 637.980469 637.410156 636.625 C 633.621094 635.269531 629.871094 633.820312 626.15625 632.28125 C 622.4375 630.742188 618.761719 629.113281 615.125 627.394531 C 611.488281 625.671875 607.898438 623.867188 604.351562 621.96875 C 600.804688 620.074219 597.304688 618.089844 593.855469 616.023438 C 590.402344 613.957031 587.007812 611.804688 583.664062 609.570312 C 580.316406 607.335938 577.03125 605.019531 573.800781 602.625 C 570.570312 600.226562 567.398438 597.753906 564.289062 595.203125 C 561.179688 592.648438 558.136719 590.023438 555.15625 587.320312 C 552.175781 584.621094 549.261719 581.847656 546.417969 579.003906 C 543.574219 576.160156 540.800781 573.246094 538.097656 570.265625 C 535.398438 567.285156 532.769531 564.242188 530.21875 561.132812 C 527.667969 558.023438 525.195312 554.851562 522.796875 551.621094 C 520.402344 548.390625 518.085938 545.101562 515.851562 541.757812 C 513.617188 538.414062 511.464844 535.015625 509.398438 531.566406 C 507.328125 528.117188 505.347656 524.617188 503.453125 521.070312 C 501.554688 517.523438 499.746094 513.929688 498.027344 510.296875 C 496.308594 506.660156 494.679688 502.984375 493.140625 499.265625 C 491.601562 495.550781 490.152344 491.796875 488.796875 488.011719 C 487.441406 484.222656 486.179688 480.40625 485.011719 476.558594 C 483.84375 472.707031 482.773438 468.832031 481.796875 464.929688 C 480.820312 461.027344 479.9375 457.105469 479.152344 453.160156 C 478.367188 449.214844 477.679688 445.253906 477.089844 441.273438 C 476.5 437.296875 476.007812 433.304688 475.613281 429.300781 C 475.21875 425.296875 474.921875 421.289062 474.726562 417.269531 C 474.527344 413.253906 474.429688 409.234375 474.429688 405.210938 C 474.429688 401.1875 474.527344 397.167969 474.726562 393.152344 C 474.921875 389.132812 475.21875 385.121094 475.613281 381.121094 C 476.007812 377.117188 476.5 373.125 477.089844 369.148438 C 477.679688 365.167969 478.367188 361.207031 479.152344 357.261719 C 479.9375 353.316406 480.820312 349.390625 481.796875 345.492188 C 482.773438 341.589844 483.84375 337.714844 485.011719 333.863281 C 486.179688 330.015625 487.441406 326.195312 488.796875 322.410156 C 490.152344 318.621094 491.601562 314.871094 493.140625 311.15625 C 494.679688 307.4375 496.308594 303.761719 498.027344 300.125 C 499.746094 296.488281 501.554688 292.898438 503.453125 289.351562 C 505.347656 285.804688 507.328125 282.304688 509.398438 278.855469 C 511.464844 275.402344 513.617188 272.007812 515.851562 268.664062 C 518.085938 265.316406 520.402344 262.03125 522.796875 258.800781 C 525.195312 255.570312 527.667969 252.398438 530.21875 249.289062 C 532.769531 246.179688 535.398438 243.136719 538.097656 240.15625 C 540.800781 237.175781 543.574219 234.261719 546.417969 231.417969 C 549.261719 228.574219 552.175781 225.800781 555.15625 223.097656 C 558.136719 220.398438 561.179688 217.769531 564.289062 215.21875 C 567.398438 212.667969 570.570312 210.195312 573.800781 207.796875 C 577.03125 205.402344 580.316406 203.085938 583.664062 200.851562 C 587.007812 198.617188 590.402344 196.464844 593.855469 194.398438 C 597.304688 192.328125 600.804688 190.347656 604.351562 188.453125 C 607.898438 186.554688 611.488281 184.746094 615.125 183.027344 C 618.761719 181.308594 622.4375 179.679688 626.15625 178.140625 C 629.871094 176.601562 633.621094 175.152344 637.410156 173.796875 C 641.195312 172.441406 645.015625 171.179688 648.863281 170.011719 C 652.714844 168.847656 656.589844 167.773438 660.492188 166.796875 C 664.390625 165.820312 668.316406 164.9375 672.261719 164.152344 C 676.207031 163.367188 680.167969 162.679688 684.148438 162.089844 C 688.125 161.5 692.117188 161.007812 696.121094 160.613281 C 700.121094 160.21875 704.132812 159.921875 708.152344 159.726562 C 712.167969 159.527344 716.1875 159.429688 720.210938 159.429688 C 724.234375 159.429688 728.253906 159.527344 732.269531 159.726562 C 736.289062 159.921875 740.296875 160.21875 744.300781 160.613281 C 748.304688 161.007812 752.296875 161.5 756.273438 162.089844 C 760.253906 162.679688 764.214844 163.367188 768.160156 164.152344 C 772.105469 164.9375 776.027344 165.820312 779.929688 166.796875 C 783.832031 167.773438 787.707031 168.84375 791.558594 170.011719 C 795.40625 171.179688 799.222656 172.441406 803.011719 173.796875 C 806.796875 175.152344 810.550781 176.601562 814.265625 178.140625 C 817.984375 179.679688 821.660156 181.308594 825.296875 183.027344 C 828.929688 184.746094 832.523438 186.554688 836.070312 188.453125 C 839.617188 190.347656 843.117188 192.328125 846.566406 194.398438 C 850.015625 196.464844 853.414062 198.617188 856.757812 200.851562 C 860.101562 203.085938 863.390625 205.402344 866.621094 207.796875 C 869.851562 210.195312 873.023438 212.667969 876.132812 215.21875 C 879.242188 217.769531 882.285156 220.398438 885.265625 223.097656 C 888.246094 225.800781 891.160156 228.574219 894.003906 231.417969 C 896.847656 234.261719 899.621094 237.175781 902.320312 240.15625 C 905.023438 243.136719 907.648438 246.179688 910.203125 249.289062 C 912.753906 252.398438 915.226562 255.570312 917.621094 258.800781 C 920.019531 262.03125 922.335938 265.316406 924.570312 268.664062 C 926.804688 272.007812 928.957031 275.402344 931.023438 278.855469 C 933.089844 282.304688 935.074219 285.804688 936.96875 289.351562 C 938.867188 292.898438 940.671875 296.488281 942.394531 300.125 C 944.113281 303.761719 945.742188 307.4375 947.28125 311.15625 C 948.820312 314.871094 950.269531 318.621094 951.625 322.410156 C 952.980469 326.195312 954.238281 330.015625 955.40625 333.863281 C 956.574219 337.714844 957.648438 341.589844 958.625 345.492188 C 959.601562 349.390625 960.484375 353.316406 961.269531 357.261719 C 962.054688 361.207031 962.742188 365.167969 963.332031 369.148438 C 963.921875 373.125 964.414062 377.117188 964.808594 381.121094 C 965.203125 385.121094 965.496094 389.132812 965.695312 393.152344 C 965.890625 397.167969 965.992188 401.1875 965.992188 405.210938 Z M 965.992188 405.210938 " clip-rule="nonzero"/></clipPath><linearGradient x1="-0.00000000607112" gradientTransform="matrix(491.560726, 0, 0, 491.560726, 474.430082, 159.430129)" y1="-0.0000000060116" x2="1.004902" gradientUnits="userSpaceOnUse" y2="0.99505" id="d40bd07587"><stop stop-opacity="1" stop-color="rgb(97.599792%, 95.298767%, 88.999939%)" offset="0"/><stop stop-opacity="1" stop-color="rgb(97.489929%, 95.292664%, 88.999939%)" offset="0.0078125"/><stop stop-opacity="1" stop-color="rgb(97.271729%, 95.280457%, 88.999939%)" offset="0.015625"/><stop stop-opacity="1" stop-color="rgb(97.055054%, 95.26825%, 88.999939%)" offset="0.0234375"/><stop stop-opacity="1" stop-color="rgb(96.836853%, 95.256042%, 88.999939%)" offset="0.03125"/><stop stop-opacity="1" stop-color="rgb(96.618652%, 95.243835%, 88.999939%)" offset="0.0390625"/><stop stop-opacity="1" stop-color="rgb(96.401978%, 95.231628%, 88.999939%)" offset="0.046875"/><stop stop-opacity="1" stop-color="rgb(96.183777%, 95.219421%, 88.999939%)" offset="0.0546875"/><stop stop-opacity="1" stop-color="rgb(95.965576%, 95.207214%, 88.999939%)" offset="0.0625"/><stop stop-opacity="1" stop-color="rgb(95.748901%, 95.193481%, 88.999939%)" offset="0.0703125"/><stop stop-opacity="1" stop-color="rgb(95.530701%, 95.181274%, 88.999939%)" offset="0.078125"/><stop stop-opacity="1" stop-color="rgb(95.3125%, 95.169067%, 88.999939%)" offset="0.0859375"/><stop stop-opacity="1" stop-color="rgb(95.094299%, 95.15686%, 88.999939%)" offset="0.09375"/><stop stop-opacity="1" stop-color="rgb(94.877625%, 95.144653%, 88.999939%)" offset="0.101562"/><stop stop-opacity="1" stop-color="rgb(94.659424%, 95.132446%, 88.999939%)" offset="0.109375"/><stop stop-opacity="1" stop-color="rgb(94.441223%, 95.120239%, 88.999939%)" offset="0.117187"/><stop stop-opacity="1" stop-color="rgb(94.224548%, 95.108032%, 88.999939%)" offset="0.125"/><stop stop-opacity="1" stop-color="rgb(94.006348%, 95.095825%, 88.999939%)" offset="0.132812"/><stop stop-opacity="1" stop-color="rgb(93.788147%, 95.083618%, 88.999939%)" offset="0.140625"/><stop stop-opacity="1" stop-color="rgb(93.571472%, 95.069885%, 88.999939%)" offset="0.148438"/><stop stop-opacity="1" stop-color="rgb(93.353271%, 95.057678%, 88.999939%)" offset="0.15625"/><stop stop-opacity="1" stop-color="rgb(93.135071%, 95.045471%, 88.999939%)" offset="0.164063"/><stop stop-opacity="1" stop-color="rgb(92.918396%, 95.033264%, 88.999939%)" offset="0.171875"/><stop stop-opacity="1" stop-color="rgb(92.700195%, 95.021057%, 88.999939%)" offset="0.179688"/><stop stop-opacity="1" stop-color="rgb(92.481995%, 95.00885%, 88.999939%)" offset="0.1875"/><stop stop-opacity="1" stop-color="rgb(92.26532%, 94.996643%, 88.999939%)" offset="0.195312"/><stop stop-opacity="1" stop-color="rgb(92.047119%, 94.984436%, 88.999939%)" offset="0.203125"/><stop stop-opacity="1" stop-color="rgb(91.828918%, 94.972229%, 88.999939%)" offset="0.210938"/><stop stop-opacity="1" stop-color="rgb(91.612244%, 94.960022%, 88.999939%)" offset="0.21875"/><stop stop-opacity="1" stop-color="rgb(91.394043%, 94.947815%, 88.999939%)" offset="0.226562"/><stop stop-opacity="1" stop-color="rgb(91.175842%, 94.934082%, 88.999939%)" offset="0.234375"/><stop stop-opacity="1" stop-color="rgb(90.959167%, 94.921875%, 88.999939%)" offset="0.242188"/><stop stop-opacity="1" stop-color="rgb(90.740967%, 94.909668%, 88.999939%)" offset="0.25"/><stop stop-opacity="1" stop-color="rgb(90.522766%, 94.897461%, 88.999939%)" offset="0.257812"/><stop stop-opacity="1" stop-color="rgb(90.306091%, 94.885254%, 88.999939%)" offset="0.265625"/><stop stop-opacity="1" stop-color="rgb(90.087891%, 94.873047%, 88.999939%)" offset="0.273438"/><stop stop-opacity="1" stop-color="rgb(89.86969%, 94.86084%, 88.999939%)" offset="0.28125"/><stop stop-opacity="1" stop-color="rgb(89.651489%, 94.848633%, 88.999939%)" offset="0.289062"/><stop stop-opacity="1" stop-color="rgb(89.434814%, 94.836426%, 88.999939%)" offset="0.296875"/><stop stop-opacity="1" stop-color="rgb(89.216614%, 94.824219%, 88.999939%)" offset="0.304688"/><stop stop-opacity="1" stop-color="rgb(88.998413%, 94.810486%, 88.999939%)" offset="0.3125"/><stop stop-opacity="1" stop-color="rgb(88.781738%, 94.798279%, 88.999939%)" offset="0.320312"/><stop stop-opacity="1" stop-color="rgb(88.563538%, 94.786072%, 88.999939%)" offset="0.328125"/><stop stop-opacity="1" stop-color="rgb(88.345337%, 94.773865%, 88.999939%)" offset="0.335937"/><stop stop-opacity="1" stop-color="rgb(88.128662%, 94.761658%, 88.999939%)" offset="0.34375"/><stop stop-opacity="1" stop-color="rgb(87.910461%, 94.749451%, 88.999939%)" offset="0.351562"/><stop stop-opacity="1" stop-color="rgb(87.692261%, 94.737244%, 88.999939%)" offset="0.359375"/><stop stop-opacity="1" stop-color="rgb(87.475586%, 94.725037%, 88.999939%)" offset="0.367188"/><stop stop-opacity="1" stop-color="rgb(87.257385%, 94.71283%, 88.999939%)" offset="0.375"/><stop stop-opacity="1" stop-color="rgb(87.039185%, 94.700623%, 88.999939%)" offset="0.382812"/><stop stop-opacity="1" stop-color="rgb(86.82251%, 94.688416%, 88.999939%)" offset="0.390625"/><stop stop-opacity="1" stop-color="rgb(86.604309%, 94.674683%, 88.999939%)" offset="0.398437"/><stop stop-opacity="1" stop-color="rgb(86.386108%, 94.662476%, 88.999939%)" offset="0.40625"/><stop stop-opacity="1" stop-color="rgb(86.169434%, 94.650269%, 88.999939%)" offset="0.414062"/><stop stop-opacity="1" stop-color="rgb(85.951233%, 94.638062%, 88.999939%)" offset="0.421875"/><stop stop-opacity="1" stop-color="rgb(85.733032%, 94.625854%, 88.999939%)" offset="0.429687"/><stop stop-opacity="1" stop-color="rgb(85.516357%, 94.613647%, 88.999939%)" offset="0.4375"/><stop stop-opacity="1" stop-color="rgb(85.298157%, 94.60144%, 88.999939%)" offset="0.445312"/><stop stop-opacity="1" stop-color="rgb(85.079956%, 94.589233%, 88.999939%)" offset="0.453125"/><stop stop-opacity="1" stop-color="rgb(84.861755%, 94.577026%, 88.999939%)" offset="0.460938"/><stop stop-opacity="1" stop-color="rgb(84.645081%, 94.564819%, 88.999939%)" offset="0.46875"/><stop stop-opacity="1" stop-color="rgb(84.42688%, 94.551086%, 88.999939%)" offset="0.476562"/><stop stop-opacity="1" stop-color="rgb(84.208679%, 94.538879%, 88.999939%)" offset="0.484375"/><stop stop-opacity="1" stop-color="rgb(83.992004%, 94.526672%, 88.999939%)" offset="0.492187"/><stop stop-opacity="1" stop-color="rgb(83.773804%, 94.514465%, 88.999939%)" offset="0.497537"/><stop stop-opacity="1" stop-color="rgb(83.665466%, 94.508362%, 88.999939%)" offset="0.5"/><stop stop-opacity="1" stop-color="rgb(83.555603%, 94.502258%, 88.999939%)" offset="0.502463"/><stop stop-opacity="1" stop-color="rgb(83.447266%, 94.496155%, 88.999939%)" offset="0.507812"/><stop stop-opacity="1" stop-color="rgb(83.338928%, 94.490051%, 88.999939%)" offset="0.515625"/><stop stop-opacity="1" stop-color="rgb(83.120728%, 94.477844%, 88.999939%)" offset="0.523438"/><stop stop-opacity="1" stop-color="rgb(82.902527%, 94.465637%, 88.999939%)" offset="0.53125"/><stop stop-opacity="1" stop-color="rgb(82.685852%, 94.45343%, 88.999939%)" offset="0.539062"/><stop stop-opacity="1" stop-color="rgb(82.467651%, 94.441223%, 88.999939%)" offset="0.546875"/><stop stop-opacity="1" stop-color="rgb(82.249451%, 94.429016%, 88.999939%)" offset="0.554688"/><stop stop-opacity="1" stop-color="rgb(82.032776%, 94.415283%, 88.999939%)" offset="0.5625"/><stop stop-opacity="1" stop-color="rgb(81.814575%, 94.403076%, 88.999939%)" offset="0.570312"/><stop stop-opacity="1" stop-color="rgb(81.596375%, 94.390869%, 88.999939%)" offset="0.578125"/><stop stop-opacity="1" stop-color="rgb(81.3797%, 94.378662%, 88.999939%)" offset="0.585938"/><stop stop-opacity="1" stop-color="rgb(81.161499%, 94.366455%, 88.999939%)" offset="0.59375"/><stop stop-opacity="1" stop-color="rgb(80.943298%, 94.354248%, 88.999939%)" offset="0.601562"/><stop stop-opacity="1" stop-color="rgb(80.726624%, 94.342041%, 88.999939%)" offset="0.609375"/><stop stop-opacity="1" stop-color="rgb(80.508423%, 94.329834%, 88.999939%)" offset="0.617188"/><stop stop-opacity="1" stop-color="rgb(80.290222%, 94.317627%, 88.999939%)" offset="0.625"/><stop stop-opacity="1" stop-color="rgb(80.073547%, 94.30542%, 88.999939%)" offset="0.632812"/><stop stop-opacity="1" stop-color="rgb(79.855347%, 94.291687%, 88.999939%)" offset="0.640625"/><stop stop-opacity="1" stop-color="rgb(79.637146%, 94.27948%, 88.999939%)" offset="0.648438"/><stop stop-opacity="1" stop-color="rgb(79.418945%, 94.267273%, 88.999939%)" offset="0.65625"/><stop stop-opacity="1" stop-color="rgb(79.202271%, 94.255066%, 88.999939%)" offset="0.664062"/><stop stop-opacity="1" stop-color="rgb(78.98407%, 94.242859%, 88.999939%)" offset="0.671875"/><stop stop-opacity="1" stop-color="rgb(78.765869%, 94.230652%, 88.999939%)" offset="0.679688"/><stop stop-opacity="1" stop-color="rgb(78.549194%, 94.218445%, 88.999939%)" offset="0.6875"/><stop stop-opacity="1" stop-color="rgb(78.330994%, 94.206238%, 88.999939%)" offset="0.695312"/><stop stop-opacity="1" stop-color="rgb(78.112793%, 94.194031%, 88.999939%)" offset="0.703125"/><stop stop-opacity="1" stop-color="rgb(77.896118%, 94.181824%, 88.999939%)" offset="0.710938"/><stop stop-opacity="1" stop-color="rgb(77.677917%, 94.169617%, 88.999939%)" offset="0.71875"/><stop stop-opacity="1" stop-color="rgb(77.459717%, 94.155884%, 88.999939%)" offset="0.726562"/><stop stop-opacity="1" stop-color="rgb(77.243042%, 94.143677%, 88.999939%)" offset="0.734375"/><stop stop-opacity="1" stop-color="rgb(77.024841%, 94.13147%, 88.999939%)" offset="0.742188"/><stop stop-opacity="1" stop-color="rgb(76.806641%, 94.119263%, 88.999939%)" offset="0.75"/><stop stop-opacity="1" stop-color="rgb(76.589966%, 94.107056%, 88.999939%)" offset="0.757812"/><stop stop-opacity="1" stop-color="rgb(76.371765%, 94.094849%, 88.999939%)" offset="0.765625"/><stop stop-opacity="1" stop-color="rgb(76.153564%, 94.082642%, 88.999939%)" offset="0.773437"/><stop stop-opacity="1" stop-color="rgb(75.93689%, 94.070435%, 88.999939%)" offset="0.78125"/><stop stop-opacity="1" stop-color="rgb(75.718689%, 94.058228%, 88.999939%)" offset="0.789062"/><stop stop-opacity="1" stop-color="rgb(75.500488%, 94.046021%, 88.999939%)" offset="0.796875"/><stop stop-opacity="1" stop-color="rgb(75.283813%, 94.032288%, 88.999939%)" offset="0.804688"/><stop stop-opacity="1" stop-color="rgb(75.065613%, 94.020081%, 88.999939%)" offset="0.8125"/><stop stop-opacity="1" stop-color="rgb(74.847412%, 94.007874%, 88.999939%)" offset="0.820312"/><stop stop-opacity="1" stop-color="rgb(74.630737%, 93.995667%, 88.999939%)" offset="0.828125"/><stop stop-opacity="1" stop-color="rgb(74.412537%, 93.983459%, 88.999939%)" offset="0.835938"/><stop stop-opacity="1" stop-color="rgb(74.194336%, 93.971252%, 88.999939%)" offset="0.84375"/><stop stop-opacity="1" stop-color="rgb(73.976135%, 93.959045%, 88.999939%)" offset="0.851562"/><stop stop-opacity="1" stop-color="rgb(73.75946%, 93.946838%, 88.999939%)" offset="0.859375"/><stop stop-opacity="1" stop-color="rgb(73.54126%, 93.934631%, 88.999939%)" offset="0.867187"/><stop stop-opacity="1" stop-color="rgb(73.323059%, 93.922424%, 88.999939%)" offset="0.875"/><stop stop-opacity="1" stop-color="rgb(73.106384%, 93.910217%, 88.999939%)" offset="0.882812"/><stop stop-opacity="1" stop-color="rgb(72.888184%, 93.896484%, 88.999939%)" offset="0.890625"/><stop stop-opacity="1" stop-color="rgb(72.669983%, 93.884277%, 88.999939%)" offset="0.898438"/><stop stop-opacity="1" stop-color="rgb(72.453308%, 93.87207%, 88.999939%)" offset="0.90625"/><stop stop-opacity="1" stop-color="rgb(72.235107%, 93.859863%, 88.999939%)" offset="0.914062"/><stop stop-opacity="1" stop-color="rgb(72.016907%, 93.847656%, 88.999939%)" offset="0.921875"/><stop stop-opacity="1" stop-color="rgb(71.800232%, 93.835449%, 88.999939%)" offset="0.929688"/><stop stop-opacity="1" stop-color="rgb(71.582031%, 93.823242%, 88.999939%)" offset="0.9375"/><stop stop-opacity="1" stop-color="rgb(71.363831%, 93.811035%, 88.999939%)" offset="0.945312"/><stop stop-opacity="1" stop-color="rgb(71.147156%, 93.798828%, 88.999939%)" offset="0.953125"/><stop stop-opacity="1" stop-color="rgb(70.928955%, 93.786621%, 88.999939%)" offset="0.960937"/><stop stop-opacity="1" stop-color="rgb(70.710754%, 93.772888%, 88.999939%)" offset="0.96875"/><stop stop-opacity="1" stop-color="rgb(70.49408%, 93.760681%, 88.999939%)" offset="0.976562"/><stop stop-opacity="1" stop-color="rgb(70.275879%, 93.748474%, 88.999939%)" offset="0.984375"/><stop stop-opacity="1" stop-color="rgb(70.057678%, 93.736267%, 88.999939%)" offset="0.992188"/><stop stop-opacity="1" stop-color="rgb(69.841003%, 93.72406%, 88.999939%)" offset="1"/></linearGradient><mask id="bbbd2b3916"><g filter="url(#2fa0fb6436)"><rect x="-144" width="1728" fill="#000000" y="-80.999999" height="971.999992" fill-opacity="0.1882"/></g></mask><clipPath id="4e6cb88a97"><path d="M 0.988281 0.609375 L 38.632812 0.609375 L 38.632812 38.253906 L 0.988281 38.253906 Z M 0.988281 0.609375 " clip-rule="nonzero"/></clipPath><clipPath id="5d76789f94"><path d="M 19.808594 0.609375 C 9.414062 0.609375 0.988281 9.035156 0.988281 19.429688 C 0.988281 29.824219 9.414062 38.253906 19.808594 38.253906 C 30.207031 38.253906 38.632812 29.824219 38.632812 19.429688 C 38.632812 9.035156 30.207031 0.609375 19.808594 0.609375 " clip-rule="nonzero"/></clipPath><clipPath id="32792e3e1a"><rect x="0" width="39" y="0" height="39"/></clipPath><clipPath id="4b1257db00"><path d="M 116.398438 150.019531 L 135.222656 150.019531 L 135.222656 168.839844 L 116.398438 168.839844 Z M 116.398438 150.019531 " clip-rule="nonzero"/></clipPath><clipPath id="c968e965de"><path d="M 125.808594 150.019531 C 120.613281 150.019531 116.398438 154.234375 116.398438 159.429688 C 116.398438 164.628906 120.613281 168.839844 125.808594 168.839844 C 131.007812 168.839844 135.222656 164.628906 135.222656 159.429688 C 135.222656 154.234375 131.007812 150.019531 125.808594 150.019531 " clip-rule="nonzero"/></clipPath><mask id="65828a1eba"><g filter="url(#2fa0fb6436)"><rect x="-144" width="1728" fill="#000000" y="-80.999999" height="971.999992" fill-opacity="0.1882"/></g></mask><clipPath id="ac04183441"><path d="M 0.109375 0.746094 L 37.753906 0.746094 L 37.753906 38.390625 L 0.109375 38.390625 Z M 0.109375 0.746094 " clip-rule="nonzero"/></clipPath><clipPath id="6924b4bfe9"><path d="M 18.929688 0.746094 C 8.535156 0.746094 0.109375 9.175781 0.109375 19.570312 C 0.109375 29.964844 8.535156 38.390625 18.929688 38.390625 C 29.328125 38.390625 37.753906 29.964844 37.753906 19.570312 C 37.753906 9.175781 29.328125 0.746094 18.929688 0.746094 " clip-rule="nonzero"/></clipPath><clipPath id="635a1f4d7b"><rect x="0" width="38" y="0" height="39"/></clipPath><clipPath id="a78ad5610b"><path d="M 1303.519531 641.160156 L 1322.34375 641.160156 L 1322.34375 659.980469 L 1303.519531 659.980469 Z M 1303.519531 641.160156 " clip-rule="nonzero"/></clipPath><clipPath id="d468c9ed0e"><path d="M 1312.929688 641.160156 C 1307.734375 641.160156 1303.519531 645.371094 1303.519531 650.570312 C 1303.519531 655.765625 1307.734375 659.980469 1312.929688 659.980469 C 1318.128906 659.980469 1322.34375 655.765625 1322.34375 650.570312 C 1322.34375 645.371094 1318.128906 641.160156 1312.929688 641.160156 " clip-rule="nonzero"/></clipPath><mask id="682130bc8b"><g filter="url(#2fa0fb6436)"><rect x="-144" width="1728" fill="#000000" y="-80.999999" height="971.999992" fill-opacity="0.1882"/></g></mask><clipPath id="5745478591"><path d="M 0.667969 0.355469 L 38.3125 0.355469 L 38.3125 38 L 0.667969 38 Z M 0.667969 0.355469 " clip-rule="nonzero"/></clipPath><clipPath id="97d98980ee"><path d="M 19.488281 0.355469 C 9.09375 0.355469 0.667969 8.78125 0.667969 19.175781 C 0.667969 29.574219 9.09375 38 19.488281 38 C 29.882812 38 38.3125 29.574219 38.3125 19.175781 C 38.3125 8.78125 29.882812 0.355469 19.488281 0.355469 " clip-rule="nonzero"/></clipPath><clipPath id="318ff08967"><rect x="0" width="39" y="0" height="39"/></clipPath><clipPath id="ea31e7e5d4"><path d="M 1390.078125 52.765625 L 1408.898438 52.765625 L 1408.898438 71.589844 L 1390.078125 71.589844 Z M 1390.078125 52.765625 " clip-rule="nonzero"/></clipPath><clipPath id="1cccc584fb"><path d="M 1399.488281 52.765625 C 1394.292969 52.765625 1390.078125 56.980469 1390.078125 62.175781 C 1390.078125 67.375 1394.292969 71.589844 1399.488281 71.589844 C 1404.6875 71.589844 1408.898438 67.375 1408.898438 62.175781 C 1408.898438 56.980469 1404.6875 52.765625 1399.488281 52.765625 " clip-rule="nonzero"/></clipPath><mask id="c39ae1f370"><g filter="url(#2fa0fb6436)"><rect x="-144" width="1728" fill="#000000" y="-80.999999" height="971.999992" fill-opacity="0.1882"/></g></mask><clipPath id="71058b5310"><path d="M 0.695312 0.660156 L 38.339844 0.660156 L 38.339844 38.304688 L 0.695312 38.304688 Z M 0.695312 0.660156 " clip-rule="nonzero"/></clipPath><clipPath id="4aead3c5aa"><path d="M 19.519531 0.660156 C 9.121094 0.660156 0.695312 9.089844 0.695312 19.484375 C 0.695312 29.878906 9.121094 38.304688 19.519531 38.304688 C 29.914062 38.304688 38.339844 29.878906 38.339844 19.484375 C 38.339844 9.089844 29.914062 0.660156 19.519531 0.660156 " clip-rule="nonzero"/></clipPath><clipPath id="226b22688d"><rect x="0" width="39" y="0" height="39"/></clipPath><clipPath id="4ce0e75acb"><path d="M 1224.105469 331.074219 L 1242.929688 331.074219 L 1242.929688 349.894531 L 1224.105469 349.894531 Z M 1224.105469 331.074219 " clip-rule="nonzero"/></clipPath><clipPath id="68690b9f3d"><path d="M 1233.519531 331.074219 C 1228.320312 331.074219 1224.105469 335.285156 1224.105469 340.484375 C 1224.105469 345.679688 1228.320312 349.894531 1233.519531 349.894531 C 1238.714844 349.894531 1242.929688 345.679688 1242.929688 340.484375 C 1242.929688 335.285156 1238.714844 331.074219 1233.519531 331.074219 " clip-rule="nonzero"/></clipPath><mask id="a212da6ab3"><g filter="url(#2fa0fb6436)"><rect x="-144" width="1728" fill="#000000" y="-80.999999" height="971.999992" fill-opacity="0.1882"/></g></mask><clipPath id="e0db61fd46"><path d="M 0.742188 0.292969 L 38.386719 0.292969 L 38.386719 37.9375 L 0.742188 37.9375 Z M 0.742188 0.292969 " clip-rule="nonzero"/></clipPath><clipPath id="93e50a5f86"><path d="M 19.5625 0.292969 C 9.167969 0.292969 0.742188 8.71875 0.742188 19.113281 C 0.742188 29.511719 9.167969 37.9375 19.5625 37.9375 C 29.960938 37.9375 38.386719 29.511719 38.386719 19.113281 C 38.386719 8.71875 29.960938 0.292969 19.5625 0.292969 " clip-rule="nonzero"/></clipPath><clipPath id="10e9627921"><rect x="0" width="39" y="0" height="39"/></clipPath><clipPath id="60633869ad"><path d="M 200.152344 496.703125 L 218.972656 496.703125 L 218.972656 515.527344 L 200.152344 515.527344 Z M 200.152344 496.703125 " clip-rule="nonzero"/></clipPath><clipPath id="5e2b13fb13"><path d="M 209.5625 496.703125 C 204.367188 496.703125 200.152344 500.917969 200.152344 506.117188 C 200.152344 511.3125 204.367188 515.527344 209.5625 515.527344 C 214.761719 515.527344 218.972656 511.3125 218.972656 506.117188 C 218.972656 500.917969 214.761719 496.703125 209.5625 496.703125 " clip-rule="nonzero"/></clipPath><mask id="5a14dd2ad7"><g filter="url(#2fa0fb6436)"><rect x="-144" width="1728" fill="#000000" y="-80.999999" height="971.999992" fill-opacity="0.1882"/></g></mask><clipPath id="7797047d80"><path d="M 0.542969 1 L 38.1875 1 L 38.1875 38.644531 L 0.542969 38.644531 Z M 0.542969 1 " clip-rule="nonzero"/></clipPath><clipPath id="a90fa48d10"><path d="M 19.363281 1 C 8.96875 1 0.542969 9.425781 0.542969 19.824219 C 0.542969 30.21875 8.96875 38.644531 19.363281 38.644531 C 29.757812 38.644531 38.1875 30.21875 38.1875 19.824219 C 38.1875 9.425781 29.757812 1 19.363281 1 " clip-rule="nonzero"/></clipPath><clipPath id="d78d3f6bfb"><rect x="0" width="39" y="0" height="39"/></clipPath><clipPath id="454459ca90"><path d="M 34.953125 738.410156 L 53.773438 738.410156 L 53.773438 757.234375 L 34.953125 757.234375 Z M 34.953125 738.410156 " clip-rule="nonzero"/></clipPath><clipPath id="2002ef6501"><path d="M 44.363281 738.410156 C 39.167969 738.410156 34.953125 742.625 34.953125 747.824219 C 34.953125 753.019531 39.167969 757.234375 44.363281 757.234375 C 49.5625 757.234375 53.773438 753.019531 53.773438 747.824219 C 53.773438 742.625 49.5625 738.410156 44.363281 738.410156 " clip-rule="nonzero"/></clipPath></defs><rect x="-144" width="1728" fill="#ffffff" y="-80.999999" height="971.999992" fill-opacity="1"/><rect x="-144" width="1728" fill="#ffffff" y="-80.999999" height="971.999992" fill-opacity="1"/><rect x="-144" width="1728" fill="#ffffff" y="-80.999999" height="971.999992" fill-opacity="1"/><g mask="url(#6bea9a2741)"><g transform="matrix(1, 0, 0, 1, 0, 0.000000000000039746)"><g clip-path="url(#386ea6cfbb)"><g clip-path="url(#3938d74140)"><g clip-path="url(#87e9702293)"><path stroke-linecap="butt" transform="matrix(0.750023, 0, 0, 0.750023, -39.730476, -354.73045)" fill="none" stroke-linejoin="miter" d="M 1012.968846 -0.0000247939 C 453.522516 -0.0000247939 0.000010225 453.522481 0.000010225 1012.968811 C 0.000010225 1572.41514 453.522516 2025.937646 1012.968846 2025.937646 C 1572.415175 2025.937646 2025.937681 1572.41514 2025.937681 1012.968811 C 2025.937681 453.522481 1572.415175 -0.0000247939 1012.968846 -0.0000247939 " stroke="#003049" stroke-width="4" stroke-opacity="1" stroke-miterlimit="4"/></g></g></g></g></g><g clip-path="url(#9f769322cf)"><path fill="url(#19ff236f09)" d="M 0.0390625 0.0234375 L 0.0390625 810 L 1439.652344 810 L 1439.652344 0.0234375 Z M 0.0390625 0.0234375 " fill-rule="nonzero"/></g><g mask="url(#193af80c29)"><g transform="matrix(1, 0, 0, 1, 58, 0.000000000000039746)"><g clip-path="url(#e9f9445f0d)"><g clip-path="url(#2f8fc6bdd0)"><g clip-path="url(#35f2180477)"><path stroke-linecap="butt" transform="matrix(0.925434, 0, 0, 0.925434, 20.26467, -236.735286)" fill="none" stroke-linejoin="miter" d="M 693.218567 0.000984932 C 310.366262 0.000984932 0.00103173 310.366215 0.00103173 693.21852 C 0.00103173 1076.070825 310.366262 1386.436056 693.218567 1386.436056 C 1076.070872 1386.436056 1386.436102 1076.070825 1386.436102 693.21852 C 1386.436102 310.366215 1076.070872 0.000984932 693.218567 0.000984932 " stroke="#003049" stroke-width="3.240698" stroke-opacity="1" stroke-miterlimit="4"/></g></g></g></g></g><g mask="url(#e02e2969cf)"><g transform="matrix(1, 0, 0, 1, 201, 0.000000000000039746)"><g clip-path="url(#592dec54c6)"><g clip-path="url(#41b13bafd2)"><path fill="#ffccbc" d="M 1037.578125 405.171875 C 1037.578125 413.652344 1037.367188 422.132812 1036.953125 430.605469 C 1036.535156 439.082031 1035.910156 447.539062 1035.082031 455.984375 C 1034.25 464.425781 1033.210938 472.84375 1031.964844 481.234375 C 1030.722656 489.628906 1029.269531 497.984375 1027.617188 506.304688 C 1025.960938 514.628906 1024.101562 522.902344 1022.039062 531.132812 C 1019.980469 539.363281 1017.71875 547.535156 1015.253906 555.65625 C 1012.792969 563.773438 1010.128906 571.828125 1007.273438 579.816406 C 1004.414062 587.804688 1001.363281 595.71875 998.113281 603.554688 C 994.867188 611.394531 991.429688 619.148438 987.804688 626.816406 C 984.175781 634.488281 980.363281 642.0625 976.363281 649.546875 C 972.363281 657.027344 968.183594 664.40625 963.820312 671.683594 C 959.460938 678.960938 954.921875 686.128906 950.210938 693.179688 C 945.496094 700.234375 940.613281 707.171875 935.558594 713.984375 C 930.503906 720.800781 925.285156 727.484375 919.902344 734.042969 C 914.519531 740.601562 908.980469 747.023438 903.285156 753.3125 C 897.585938 759.597656 891.738281 765.738281 885.738281 771.738281 C 879.738281 777.738281 873.597656 783.585938 867.3125 789.285156 C 861.023438 794.980469 854.601562 800.523438 848.042969 805.902344 C 841.484375 811.285156 834.796875 816.503906 827.984375 821.558594 C 821.167969 826.613281 814.234375 831.496094 807.179688 836.210938 C 800.125 840.921875 792.960938 845.460938 785.683594 849.820312 C 778.40625 854.183594 771.027344 858.363281 763.546875 862.363281 C 756.0625 866.363281 748.488281 870.175781 740.816406 873.804688 C 733.148438 877.429688 725.394531 880.867188 717.554688 884.113281 C 709.71875 887.363281 701.804688 890.414062 693.816406 893.273438 C 685.828125 896.128906 677.773438 898.792969 669.65625 901.253906 C 661.535156 903.71875 653.363281 905.980469 645.132812 908.039062 C 636.902344 910.101562 628.628906 911.960938 620.304688 913.617188 C 611.984375 915.269531 603.628906 916.71875 595.234375 917.964844 C 586.84375 919.210938 578.425781 920.25 569.984375 921.082031 C 561.539062 921.910156 553.082031 922.535156 544.605469 922.953125 C 536.132812 923.367188 527.652344 923.578125 519.167969 923.578125 C 510.6875 923.578125 502.207031 923.367188 493.734375 922.953125 C 485.257812 922.535156 476.800781 921.910156 468.355469 921.082031 C 459.914062 920.25 451.496094 919.210938 443.105469 917.964844 C 434.710938 916.71875 426.355469 915.269531 418.035156 913.617188 C 409.710938 911.960938 401.4375 910.101562 393.207031 908.039062 C 384.976562 905.980469 376.804688 903.71875 368.683594 901.253906 C 360.566406 898.792969 352.511719 896.128906 344.523438 893.273438 C 336.535156 890.414062 328.621094 887.363281 320.785156 884.113281 C 312.945312 880.867188 305.191406 877.429688 297.523438 873.804688 C 289.851562 870.175781 282.277344 866.363281 274.792969 862.363281 C 267.3125 858.363281 259.933594 854.183594 252.65625 849.820312 C 245.378906 845.460938 238.210938 840.921875 231.160156 836.210938 C 224.105469 831.496094 217.167969 826.613281 210.355469 821.558594 C 203.539062 816.503906 196.855469 811.285156 190.296875 805.902344 C 183.738281 800.523438 177.316406 794.980469 171.027344 789.285156 C 164.742188 783.585938 158.601562 777.738281 152.601562 771.738281 C 146.601562 765.738281 140.753906 759.597656 135.054688 753.3125 C 129.359375 747.023438 123.816406 740.601562 118.4375 734.042969 C 113.054688 727.484375 107.835938 720.800781 102.78125 713.984375 C 97.726562 707.171875 92.84375 700.234375 88.128906 693.179688 C 83.417969 686.128906 78.878906 678.960938 74.515625 671.683594 C 70.15625 664.40625 65.976562 657.027344 61.976562 649.546875 C 57.976562 642.0625 54.164062 634.488281 50.535156 626.816406 C 46.90625 619.148438 43.472656 611.394531 40.222656 603.554688 C 36.976562 595.71875 33.925781 587.804688 31.066406 579.816406 C 28.207031 571.828125 25.546875 563.773438 23.085938 555.65625 C 20.621094 547.535156 18.359375 539.363281 16.300781 531.132812 C 14.238281 522.902344 12.378906 514.628906 10.722656 506.304688 C 9.070312 497.984375 7.617188 489.628906 6.375 481.234375 C 5.128906 472.84375 4.089844 464.425781 3.257812 455.984375 C 2.425781 447.539062 1.804688 439.082031 1.386719 430.605469 C 0.972656 422.132812 0.761719 413.652344 0.761719 405.171875 C 0.761719 396.6875 0.972656 388.207031 1.386719 379.734375 C 1.804688 371.257812 2.425781 362.800781 3.257812 354.355469 C 4.089844 345.914062 5.128906 337.496094 6.375 329.105469 C 7.617188 320.710938 9.070312 312.355469 10.722656 304.035156 C 12.378906 295.710938 14.238281 287.4375 16.300781 279.207031 C 18.359375 270.976562 20.621094 262.804688 23.085938 254.683594 C 25.546875 246.566406 28.207031 238.511719 31.066406 230.523438 C 33.925781 222.535156 36.976562 214.621094 40.222656 206.785156 C 43.472656 198.945312 46.90625 191.191406 50.535156 183.523438 C 54.164062 175.851562 57.976562 168.277344 61.976562 160.792969 C 65.976562 153.3125 70.15625 145.933594 74.515625 138.65625 C 78.878906 131.378906 83.417969 124.210938 88.128906 117.160156 C 92.84375 110.105469 97.726562 103.167969 102.78125 96.355469 C 107.835938 89.539062 113.054688 82.855469 118.4375 76.296875 C 123.816406 69.738281 129.359375 63.316406 135.054688 57.027344 C 140.753906 50.742188 146.601562 44.601562 152.601562 38.601562 C 158.601562 32.601562 164.742188 26.753906 171.027344 21.054688 C 177.316406 15.359375 183.738281 9.816406 190.296875 4.4375 C 196.855469 -0.945312 203.539062 -6.164062 210.355469 -11.21875 C 217.167969 -16.273438 224.105469 -21.15625 231.160156 -25.871094 C 238.210938 -30.582031 245.378906 -35.121094 252.65625 -39.484375 C 259.933594 -43.84375 267.3125 -48.023438 274.792969 -52.023438 C 282.277344 -56.023438 289.851562 -59.835938 297.523438 -63.464844 C 305.191406 -67.089844 312.945312 -70.527344 320.785156 -73.777344 C 328.621094 -77.023438 336.535156 -80.074219 344.523438 -82.933594 C 352.511719 -85.792969 360.566406 -88.453125 368.683594 -90.914062 C 376.804688 -93.378906 384.976562 -95.640625 393.207031 -97.699219 C 401.4375 -99.761719 409.710938 -101.621094 418.035156 -103.277344 C 426.355469 -104.929688 434.710938 -106.382812 443.105469 -107.625 C 451.496094 -108.871094 459.914062 -109.910156 468.355469 -110.742188 C 476.800781 -111.570312 485.257812 -112.195312 493.734375 -112.613281 C 502.207031 -113.027344 510.6875 -113.238281 519.167969 -113.238281 C 527.652344 -113.238281 536.132812 -113.027344 544.605469 -112.613281 C 553.082031 -112.195312 561.539062 -111.570312 569.984375 -110.742188 C 578.425781 -109.910156 586.84375 -108.871094 595.234375 -107.625 C 603.628906 -106.382812 611.984375 -104.929688 620.304688 -103.277344 C 628.628906 -101.621094 636.902344 -99.761719 645.132812 -97.699219 C 653.363281 -95.640625 661.535156 -93.378906 669.65625 -90.914062 C 677.773438 -88.453125 685.828125 -85.792969 693.816406 -82.933594 C 701.804688 -80.074219 709.71875 -77.023438 717.554688 -73.777344 C 725.394531 -70.527344 733.148438 -67.089844 740.816406 -63.464844 C 748.488281 -59.835938 756.0625 -56.023438 763.546875 -52.023438 C 771.027344 -48.023438 778.40625 -43.84375 785.683594 -39.484375 C 792.960938 -35.121094 800.125 -30.582031 807.179688 -25.871094 C 814.234375 -21.15625 821.167969 -16.273438 827.984375 -11.21875 C 834.796875 -6.164062 841.484375 -0.945312 848.042969 4.4375 C 854.601562 9.816406 861.023438 15.359375 867.3125 21.054688 C 873.597656 26.753906 879.738281 32.601562 885.738281 38.601562 C 891.738281 44.601562 897.585938 50.742188 903.285156 57.027344 C 908.980469 63.316406 914.519531 69.738281 919.902344 76.296875 C 925.285156 82.855469 930.503906 89.539062 935.558594 96.355469 C 940.613281 103.167969 945.496094 110.105469 950.210938 117.160156 C 954.921875 124.210938 959.460938 131.378906 963.820312 138.65625 C 968.183594 145.933594 972.363281 153.3125 976.363281 160.792969 C 980.363281 168.277344 984.175781 175.851562 987.804688 183.523438 C 991.429688 191.191406 994.867188 198.945312 998.113281 206.785156 C 1001.363281 214.621094 1004.414062 222.535156 1007.273438 230.523438 C 1010.128906 238.511719 1012.792969 246.566406 1015.253906 254.683594 C 1017.71875 262.804688 1019.980469 270.976562 1022.039062 279.207031 C 1024.101562 287.4375 1025.960938 295.710938 1027.617188 304.035156 C 1029.269531 312.355469 1030.722656 320.710938 1031.964844 329.105469 C 1033.210938 337.496094 1034.25 345.914062 1035.082031 354.355469 C 1035.910156 362.800781 1036.535156 371.257812 1036.953125 379.734375 C 1037.367188 388.207031 1037.578125 396.6875 1037.578125 405.171875 Z M 1037.578125 405.171875 " fill-opacity="1" fill-rule="nonzero"/></g></g></g></g><g mask="url(#a13c042b42)"><g transform="matrix(1, 0, 0, 1, 331, 17)"><g clip-path="url(#34a90c8f31)"><g clip-path="url(#ff71084feb)"><path fill="#ffccbc" d="M 777.027344 388.148438 C 777.027344 394.496094 776.871094 400.839844 776.558594 407.179688 C 776.246094 413.519531 775.78125 419.847656 775.160156 426.164062 C 774.535156 432.484375 773.757812 438.78125 772.828125 445.0625 C 771.898438 451.339844 770.8125 457.59375 769.574219 463.816406 C 768.335938 470.042969 766.945312 476.234375 765.402344 482.394531 C 763.859375 488.550781 762.167969 494.667969 760.324219 500.742188 C 758.480469 506.816406 756.492188 512.84375 754.351562 518.820312 C 752.214844 524.796875 749.929688 530.71875 747.5 536.582031 C 745.070312 542.445312 742.5 548.25 739.785156 553.988281 C 737.070312 559.726562 734.21875 565.394531 731.226562 570.992188 C 728.234375 576.589844 725.105469 582.113281 721.84375 587.558594 C 718.578125 593 715.183594 598.363281 711.65625 603.640625 C 708.128906 608.917969 704.476562 614.109375 700.695312 619.207031 C 696.914062 624.304688 693.007812 629.308594 688.980469 634.214844 C 684.953125 639.121094 680.808594 643.925781 676.546875 648.628906 C 672.285156 653.335938 667.90625 657.929688 663.417969 662.417969 C 658.929688 666.90625 654.335938 671.285156 649.628906 675.546875 C 644.925781 679.808594 640.121094 683.953125 635.214844 687.980469 C 630.308594 692.007812 625.304688 695.914062 620.207031 699.695312 C 615.109375 703.476562 609.917969 707.128906 604.640625 710.65625 C 599.363281 714.183594 594 717.578125 588.558594 720.84375 C 583.113281 724.105469 577.589844 727.234375 571.992188 730.226562 C 566.394531 733.21875 560.726562 736.070312 554.988281 738.785156 C 549.246094 741.5 543.445312 744.070312 537.582031 746.5 C 531.71875 748.929688 525.796875 751.214844 519.820312 753.351562 C 513.84375 755.492188 507.816406 757.480469 501.742188 759.324219 C 495.667969 761.167969 489.550781 762.859375 483.394531 764.402344 C 477.234375 765.945312 471.042969 767.335938 464.816406 768.574219 C 458.59375 769.8125 452.339844 770.898438 446.0625 771.828125 C 439.78125 772.757812 433.484375 773.535156 427.164062 774.160156 C 420.847656 774.78125 414.519531 775.246094 408.179688 775.558594 C 401.839844 775.871094 395.496094 776.027344 389.148438 776.027344 C 382.800781 776.027344 376.453125 775.871094 370.113281 775.558594 C 363.773438 775.246094 357.445312 774.78125 351.128906 774.160156 C 344.8125 773.535156 338.511719 772.757812 332.234375 771.828125 C 325.953125 770.898438 319.703125 769.8125 313.476562 768.574219 C 307.25 767.335938 301.058594 765.945312 294.898438 764.402344 C 288.742188 762.859375 282.625 761.167969 276.550781 759.324219 C 270.476562 757.480469 264.449219 755.492188 258.472656 753.351562 C 252.496094 751.214844 246.578125 748.929688 240.710938 746.5 C 234.847656 744.070312 229.046875 741.5 223.308594 738.785156 C 217.570312 736.070312 211.898438 733.21875 206.300781 730.226562 C 200.703125 727.234375 195.183594 724.105469 189.738281 720.84375 C 184.292969 717.578125 178.929688 714.183594 173.652344 710.65625 C 168.375 707.128906 163.1875 703.476562 158.085938 699.695312 C 152.988281 695.914062 147.984375 692.007812 143.078125 687.980469 C 138.171875 683.953125 133.367188 679.808594 128.664062 675.546875 C 123.960938 671.285156 119.363281 666.90625 114.875 662.417969 C 110.386719 657.929688 106.011719 653.335938 101.746094 648.628906 C 97.484375 643.925781 93.339844 639.121094 89.3125 634.214844 C 85.285156 629.308594 81.378906 624.304688 77.597656 619.207031 C 73.816406 614.109375 70.164062 608.917969 66.636719 603.640625 C 63.109375 598.363281 59.714844 593 56.453125 587.558594 C 53.1875 582.113281 50.058594 576.589844 47.066406 570.992188 C 44.074219 565.394531 41.222656 559.726562 38.507812 553.988281 C 35.792969 548.25 33.222656 542.445312 30.792969 536.582031 C 28.363281 530.71875 26.078125 524.796875 23.941406 518.820312 C 21.800781 512.84375 19.8125 506.816406 17.96875 500.742188 C 16.125 494.667969 14.433594 488.550781 12.890625 482.394531 C 11.347656 476.234375 9.957031 470.042969 8.71875 463.816406 C 7.480469 457.59375 6.398438 451.339844 5.464844 445.0625 C 4.535156 438.78125 3.757812 432.484375 3.136719 426.164062 C 2.511719 419.847656 2.046875 413.519531 1.734375 407.179688 C 1.421875 400.839844 1.265625 394.496094 1.265625 388.148438 C 1.265625 381.800781 1.421875 375.453125 1.734375 369.113281 C 2.046875 362.773438 2.511719 356.445312 3.136719 350.128906 C 3.757812 343.8125 4.535156 337.511719 5.464844 331.234375 C 6.398438 324.953125 7.480469 318.703125 8.71875 312.476562 C 9.957031 306.25 11.347656 300.058594 12.890625 293.898438 C 14.433594 287.742188 16.125 281.625 17.96875 275.550781 C 19.8125 269.476562 21.800781 263.449219 23.941406 257.472656 C 26.078125 251.496094 28.363281 245.578125 30.792969 239.710938 C 33.222656 233.847656 35.792969 228.046875 38.507812 222.308594 C 41.222656 216.570312 44.074219 210.898438 47.066406 205.300781 C 50.058594 199.703125 53.1875 194.183594 56.453125 188.738281 C 59.714844 183.292969 63.109375 177.929688 66.636719 172.652344 C 70.164062 167.375 73.816406 162.1875 77.597656 157.085938 C 81.378906 151.988281 85.285156 146.984375 89.3125 142.078125 C 93.339844 137.171875 97.484375 132.367188 101.746094 127.664062 C 106.011719 122.960938 110.386719 118.363281 114.875 113.875 C 119.363281 109.386719 123.960938 105.011719 128.664062 100.746094 C 133.367188 96.484375 138.171875 92.339844 143.078125 88.3125 C 147.984375 84.285156 152.988281 80.378906 158.085938 76.597656 C 163.1875 72.816406 168.375 69.164062 173.652344 65.636719 C 178.929688 62.109375 184.292969 58.714844 189.738281 55.453125 C 195.183594 52.1875 200.703125 49.058594 206.300781 46.066406 C 211.898438 43.074219 217.570312 40.222656 223.308594 37.507812 C 229.046875 34.792969 234.847656 32.222656 240.710938 29.792969 C 246.578125 27.363281 252.496094 25.078125 258.472656 22.941406 C 264.449219 20.804688 270.476562 18.8125 276.550781 16.96875 C 282.625 15.125 288.742188 13.433594 294.898438 11.890625 C 301.058594 10.347656 307.25 8.957031 313.476562 7.71875 C 319.703125 6.480469 325.953125 5.398438 332.234375 4.464844 C 338.511719 3.535156 344.8125 2.757812 351.128906 2.136719 C 357.445312 1.511719 363.773438 1.046875 370.113281 0.734375 C 376.453125 0.421875 382.800781 0.265625 389.148438 0.265625 C 395.496094 0.265625 401.839844 0.421875 408.179688 0.734375 C 414.519531 1.046875 420.847656 1.511719 427.164062 2.136719 C 433.484375 2.757812 439.78125 3.535156 446.0625 4.464844 C 452.339844 5.398438 458.59375 6.480469 464.816406 7.71875 C 471.042969 8.957031 477.234375 10.347656 483.394531 11.890625 C 489.550781 13.433594 495.667969 15.125 501.742188 16.96875 C 507.816406 18.8125 513.84375 20.804688 519.820312 22.941406 C 525.796875 25.078125 531.71875 27.363281 537.582031 29.792969 C 543.445312 32.222656 549.25 34.792969 554.988281 37.507812 C 560.726562 40.222656 566.394531 43.074219 571.992188 46.066406 C 577.589844 49.058594 583.113281 52.1875 588.558594 55.453125 C 594 58.714844 599.363281 62.109375 604.640625 65.636719 C 609.917969 69.164062 615.109375 72.816406 620.207031 76.597656 C 625.304688 80.378906 630.308594 84.285156 635.214844 88.3125 C 640.121094 92.339844 644.925781 96.484375 649.628906 100.746094 C 654.335938 105.011719 658.929688 109.386719 663.417969 113.875 C 667.90625 118.363281 672.285156 122.960938 676.546875 127.664062 C 680.808594 132.367188 684.953125 137.171875 688.980469 142.078125 C 693.007812 146.984375 696.914062 151.988281 700.695312 157.085938 C 704.476562 162.1875 708.128906 167.375 711.65625 172.652344 C 715.183594 177.929688 718.578125 183.292969 721.84375 188.738281 C 725.105469 194.183594 728.234375 199.703125 731.226562 205.300781 C 734.21875 210.898438 737.070312 216.570312 739.785156 222.308594 C 742.5 228.046875 745.070312 233.847656 747.5 239.710938 C 749.929688 245.578125 752.214844 251.496094 754.351562 257.472656 C 756.492188 263.449219 758.480469 269.476562 760.324219 275.550781 C 762.167969 281.625 763.859375 287.742188 765.402344 293.898438 C 766.945312 300.058594 768.335938 306.25 769.574219 312.476562 C 770.8125 318.703125 771.898438 324.953125 772.828125 331.234375 C 773.757812 337.511719 774.535156 343.8125 775.160156 350.128906 C 775.78125 356.445312 776.246094 362.773438 776.558594 369.113281 C 776.871094 375.453125 777.027344 381.800781 777.027344 388.148438 Z M 777.027344 388.148438 " fill-opacity="1" fill-rule="nonzero"/></g></g></g></g><g clip-path="url(#ff9c097b77)"><g clip-path="url(#56a7eae5fe)"><path fill="url(#d40bd07587)" d="M 474.429688 159.429688 L 474.429688 650.992188 L 965.992188 650.992188 L 965.992188 159.429688 Z M 474.429688 159.429688 " fill-rule="nonzero"/></g></g><g mask="url(#bbbd2b3916)"><g transform="matrix(1, 0, 0, 1, 106, 140)"><g clip-path="url(#32792e3e1a)"><g clip-path="url(#4e6cb88a97)"><g clip-path="url(#5d76789f94)"><path fill="#29647c" d="M 0.988281 0.609375 L 38.632812 0.609375 L 38.632812 38.253906 L 0.988281 38.253906 Z M 0.988281 0.609375 " fill-opacity="1" fill-rule="nonzero"/></g></g></g></g></g><g clip-path="url(#4b1257db00)"><g clip-path="url(#c968e965de)"><path fill="#29647c" d="M 116.398438 150.019531 L 135.222656 150.019531 L 135.222656 168.839844 L 116.398438 168.839844 Z M 116.398438 150.019531 " fill-opacity="1" fill-rule="nonzero"/></g></g><g mask="url(#65828a1eba)"><g transform="matrix(1, 0, 0, 1, 1294, 631)"><g clip-path="url(#635a1f4d7b)"><g clip-path="url(#ac04183441)"><g clip-path="url(#6924b4bfe9)"><path fill="#29647c" d="M 0.109375 0.746094 L 37.753906 0.746094 L 37.753906 38.390625 L 0.109375 38.390625 Z M 0.109375 0.746094 " fill-opacity="1" fill-rule="nonzero"/></g></g></g></g></g><g clip-path="url(#a78ad5610b)"><g clip-path="url(#d468c9ed0e)"><path fill="#29647c" d="M 1303.519531 641.160156 L 1322.34375 641.160156 L 1322.34375 659.980469 L 1303.519531 659.980469 Z M 1303.519531 641.160156 " fill-opacity="1" fill-rule="nonzero"/></g></g><g mask="url(#682130bc8b)"><g transform="matrix(1, 0, 0, 1, 1380, 43)"><g clip-path="url(#318ff08967)"><g clip-path="url(#5745478591)"><g clip-path="url(#97d98980ee)"><path fill="#29647c" d="M 0.667969 0.355469 L 38.3125 0.355469 L 38.3125 38 L 0.667969 38 Z M 0.667969 0.355469 " fill-opacity="1" fill-rule="nonzero"/></g></g></g></g></g><g clip-path="url(#ea31e7e5d4)"><g clip-path="url(#1cccc584fb)"><path fill="#29647c" d="M 1390.078125 52.765625 L 1408.898438 52.765625 L 1408.898438 71.589844 L 1390.078125 71.589844 Z M 1390.078125 52.765625 " fill-opacity="1" fill-rule="nonzero"/></g></g><g mask="url(#c39ae1f370)"><g transform="matrix(1, 0, 0, 1, 1214, 321)"><g clip-path="url(#226b22688d)"><g clip-path="url(#71058b5310)"><g clip-path="url(#4aead3c5aa)"><path fill="#ffab91" d="M 0.695312 0.660156 L 38.339844 0.660156 L 38.339844 38.304688 L 0.695312 38.304688 Z M 0.695312 0.660156 " fill-opacity="1" fill-rule="nonzero"/></g></g></g></g></g><g clip-path="url(#4ce0e75acb)"><g clip-path="url(#68690b9f3d)"><path fill="#ffab91" d="M 1224.105469 331.074219 L 1242.929688 331.074219 L 1242.929688 349.894531 L 1224.105469 349.894531 Z M 1224.105469 331.074219 " fill-opacity="1" fill-rule="nonzero"/></g></g><g mask="url(#a212da6ab3)"><g transform="matrix(1, 0, 0, 1, 190, 487)"><g clip-path="url(#10e9627921)"><g clip-path="url(#e0db61fd46)"><g clip-path="url(#93e50a5f86)"><path fill="#ffab91" d="M 0.742188 0.292969 L 38.386719 0.292969 L 38.386719 37.9375 L 0.742188 37.9375 Z M 0.742188 0.292969 " fill-opacity="1" fill-rule="nonzero"/></g></g></g></g></g><g clip-path="url(#60633869ad)"><g clip-path="url(#5e2b13fb13)"><path fill="#ffab91" d="M 200.152344 496.703125 L 218.972656 496.703125 L 218.972656 515.527344 L 200.152344 515.527344 Z M 200.152344 496.703125 " fill-opacity="1" fill-rule="nonzero"/></g></g><g mask="url(#5a14dd2ad7)"><g transform="matrix(1, 0, 0, 1, 25, 728)"><g clip-path="url(#d78d3f6bfb)"><g clip-path="url(#7797047d80)"><g clip-path="url(#a90fa48d10)"><path fill="#29647c" d="M 0.542969 1 L 38.1875 1 L 38.1875 38.644531 L 0.542969 38.644531 Z M 0.542969 1 " fill-opacity="1" fill-rule="nonzero"/></g></g></g></g></g><g clip-path="url(#454459ca90)"><g clip-path="url(#2002ef6501)"><path fill="#29647c" d="M 34.953125 738.410156 L 53.773438 738.410156 L 53.773438 757.234375 L 34.953125 757.234375 Z M 34.953125 738.410156 " fill-opacity="1" fill-rule="nonzero"/></g></g></svg>